<svg width="964.350048828125px" height="122.021240234375px" xmlns="http://www.w3.org/2000/svg" viewBox="-232.17502441406248 13.9893798828125 964.350048828125 122.021240234375" style="background: rgba(255, 255, 255, 0);" preserveAspectRatio="xMidYMid"><defs><filter id="editing-vintage" x="-100%" y="-100%" width="300%" height="300%"><feConvolveMatrix in="SourceGraphic" result="extrude" order="2,2" divisor="1" kernelMatrix="1,0,0,1"> </feConvolveMatrix><feFlood flood-color="#da3732" result="flood-extrude"></feFlood><feComposite operator="in" in="flood-extrude" in2="extrude" result="extrude-color"></feComposite><feOffset dx="1" dy="1" in="extrude-color" result="extrude-offset"></feOffset><feColorMatrix in="SourceGraphic" result="stroke" type="matrix" values="0 0 0 0 0 0 0 0 0 0 0 0 0 0 0 0 1 0 0 0 "></feColorMatrix><feColorMatrix in="SourceGraphic" result="fill" type="matrix" values="0 0 0 0 0 0 0 0 0 0 0 0 0 0 0 1 0 0 1 0 "></feColorMatrix><feConvolveMatrix in="stroke" result="inner-shadow" order="5,5" divisor="1" kernelMatrix="1 0 0 0 0 0 1 0 0 0 0 0 1 0 0 0 0 0 1 0 0 0 0 0 1 "></feConvolveMatrix><feOffset dx="1" dy="1" in="inner-shadow" result="offset"></feOffset><feComposite operator="in" in="offset" in2="SourceAlpha" result="comp"></feComposite><feFlood flood-color="#e4762f" result="flood3"></feFlood><feComposite operator="in" in="flood3" in2="comp" result="comp2"></feComposite><feColorMatrix in="comp2" result="comp3" type="matrix" values="1 0 0 0 0 0 1 0 0 0 0 0 1 0 0 0 0 0 0.5 0 "></feColorMatrix><feFlood flood-color="#e4762f" result="flood1"></feFlood><feComposite operator="in" in="flood1" in2="fill" result="fill2"></feComposite><feFlood flood-color="#fff" result="flood2"></feFlood><feComposite operator="in" in="flood2" in2="stroke" result="stroke2"></feComposite><feMerge result="obj"><feMergeNode in="extrude-offset"></feMergeNode><feMergeNode in="fill2"></feMergeNode><feMergeNode in="comp3"></feMergeNode></feMerge><feConvolveMatrix in="SourceAlpha" result="shadow" order="2,2" divisor="1" kernelMatrix="1,0,0,1"></feConvolveMatrix><feOffset dx="3" dy="3" in="shadow" result="shadow-offset"></feOffset><feFlood flood-color="#f7be33" result="flood-shadow"></feFlood><feComposite operator="in" in="flood-shadow" in2="shadow-offset" result="shadow-color"></feComposite><feMerge><feMergeNode in="shadow-color"></feMergeNode><feMergeNode in="obj"></feMergeNode></feMerge></filter></defs><g transform="translate(-2,-2)"><g filter="url(#editing-vintage)"><g transform="translate(-96.75500249862671, 104.75218772888184)"><path d="M2.69-39.68L2.69-39.68L2.69-39.68Q3.58-41.47 5.54-42.46L5.54-42.46L5.54-42.46Q7.49-43.46 10.18-43.46L10.18-43.46L10.18-43.46Q14.40-43.46 16.93-40.42L16.93-40.42L16.93-40.42Q19.46-37.38 19.46-30.72L19.46-30.72L19.46-7.87L34.11-42.18L41.66-42.18L43.39-9.79L43.20-7.94L58.43-42.18L67.20-42.18L46.72 0L33.09 0L31.81-19.46L23.36 0L7.94 0L6.02-30.72L6.02-30.72Q5.82-34.18 4.90-36.45L4.90-36.45L4.90-36.45Q3.97-38.72 2.69-39.68ZM96.64-7.10L96.64-7.10L96.64-7.10Q96.64-4.29 99.52-3.46L99.52-3.46L99.52-3.46Q98.82-1.09 96.06 0.19L96.06 0.19L96.06 0.19Q93.76 1.28 91.23 1.28L91.23 1.28L91.23 1.28Q88.70 1.28 87.39 0.61L87.39 0.61L87.39 0.61Q86.08-0.06 85.38-1.15L85.38-1.15L85.38-1.15Q84.22-2.82 84.22-5.95L84.22-5.95L84.22-5.95Q84.22-7.81 85.25-12.93L85.25-12.93L86.14-17.79L86.14-17.79Q87.23-23.36 87.23-25.41L87.23-25.41L87.23-25.41Q87.23-28.99 85.25-28.99L85.25-28.99L85.25-28.99Q82.75-28.99 81.15-25.34L81.15-25.34L81.15-25.34Q80.51-23.94 80.06-21.82L80.06-21.82L75.71 0L62.85 1.28L71.87-44.80L84.74-46.08L84.22-43.52L84.22-43.52Q82.43-33.66 80.90-30.34L80.90-30.34L80.90-30.34Q84.48-33.92 91.07-33.92L91.07-33.92L91.07-33.92Q98.05-33.92 99.33-29.31L99.33-29.31L99.33-29.31Q99.78-27.84 99.78-26.56L99.78-26.56L99.78-26.56Q99.78-25.28 99.68-24.29L99.68-24.29L99.68-24.29Q99.58-23.30 99.26-21.50L99.26-21.50L98.43-16.90L96.96-9.66L96.96-9.66Q96.64-8.19 96.64-7.10ZM130.62-10.82L130.62-10.82L130.62-10.82Q132.22-9.73 132.22-7.33L132.22-7.33L132.22-7.33Q132.22-4.93 131.01-3.39L131.01-3.39L131.01-3.39Q129.79-1.86 127.81-0.83L127.81-0.83L127.81-0.83Q123.71 1.28 119.30 1.28L119.30 1.28L119.30 1.28Q114.88 1.28 112.29 0.32L112.29 0.32L112.29 0.32Q109.70-0.64 107.97-2.43L107.97-2.43L107.97-2.43Q104.58-5.82 104.58-12.03L104.58-12.03L104.58-12.03Q104.58-21.70 109.82-27.58L109.82-27.58L109.82-27.58Q115.46-33.92 125.25-33.92L125.25-33.92L125.25-33.92Q131.33-33.92 134.34-31.36L134.34-31.36L134.34-31.36Q136.58-29.44 136.58-26.30L136.58-26.30L136.58-26.30Q136.58-15.04 117.12-15.04L117.12-15.04L117.12-15.04Q116.86-13.38 116.86-11.97L116.86-11.97L116.86-11.97Q116.86-9.02 118.18-7.90L118.18-7.90L118.18-7.90Q119.49-6.78 121.92-6.78L121.92-6.78L121.92-6.78Q124.35-6.78 126.94-7.90L126.94-7.90L126.94-7.90Q129.54-9.02 130.62-10.82ZM117.57-17.79L117.57-17.79L117.57-17.79Q122.11-17.79 124.74-20.61L124.74-20.61L124.74-20.61Q127.36-23.30 127.36-27.58L127.36-27.58L127.36-27.58Q127.36-29.06 126.82-29.86L126.82-29.86L126.82-29.86Q126.27-30.66 125.18-30.66L125.18-30.66L125.18-30.66Q124.10-30.66 123.17-30.24L123.17-30.24L123.17-30.24Q122.24-29.82 121.28-28.42L121.28-28.42L121.28-28.42Q118.91-25.22 117.57-17.79ZM164.67-10.82L164.67-10.82L164.67-10.82Q166.27-9.73 166.27-7.33L166.27-7.33L166.27-7.33Q166.27-4.93 165.06-3.39L165.06-3.39L165.06-3.39Q163.84-1.86 161.86-0.83L161.86-0.83L161.86-0.83Q157.76 1.28 153.34 1.28L153.34 1.28L153.34 1.28Q148.93 1.28 146.34 0.32L146.34 0.32L146.34 0.32Q143.74-0.64 142.02-2.43L142.02-2.43L142.02-2.43Q138.62-5.82 138.62-12.03L138.62-12.03L138.62-12.03Q138.62-21.70 143.87-27.58L143.87-27.58L143.87-27.58Q149.50-33.92 159.30-33.92L159.30-33.92L159.30-33.92Q165.38-33.92 168.38-31.36L168.38-31.36L168.38-31.36Q170.62-29.44 170.62-26.30L170.62-26.30L170.62-26.30Q170.62-15.04 151.17-15.04L151.17-15.04L151.17-15.04Q150.91-13.38 150.91-11.97L150.91-11.97L150.91-11.97Q150.91-9.02 152.22-7.90L152.22-7.90L152.22-7.90Q153.54-6.78 155.97-6.78L155.97-6.78L155.97-6.78Q158.40-6.78 160.99-7.90L160.99-7.90L160.99-7.90Q163.58-9.02 164.67-10.82ZM151.62-17.79L151.62-17.79L151.62-17.79Q156.16-17.79 158.78-20.61L158.78-20.61L158.78-20.61Q161.41-23.30 161.41-27.58L161.41-27.58L161.41-27.58Q161.41-29.06 160.86-29.86L160.86-29.86L160.86-29.86Q160.32-30.66 159.23-30.66L159.23-30.66L159.23-30.66Q158.14-30.66 157.22-30.24L157.22-30.24L157.22-30.24Q156.29-29.82 155.33-28.42L155.33-28.42L155.33-28.42Q152.96-25.22 151.62-17.79ZM188.10-3.52L188.10-3.52L188.10-3.52Q186.11 1.28 179.78 1.28L179.78 1.28L179.78 1.28Q176.58 1.28 174.53-0.96L174.53-0.96L174.53-0.96Q172.86-2.82 172.86-4.93L172.86-4.93L172.86-4.93Q172.86-9.73 175.10-20.22L175.10-20.22L179.78-44.80L192.77-46.08L186.56-13.70L186.56-13.70Q185.47-8.96 185.47-7.30L185.47-7.30L185.47-7.30Q185.47-3.65 188.10-3.52ZM220.67 1.28L220.67 1.28L220.67 1.28Q206.59 1.28 206.59-11.97L206.59-11.97L206.59-11.97Q206.59-21.38 211.78-27.46L211.78-27.46L211.78-27.46Q217.28-33.92 226.82-33.92L226.82-33.92L226.82-33.92Q233.73-33.92 237.25-30.72L237.25-30.72L237.25-30.72Q240.77-27.52 240.77-20.80L240.77-20.80L240.77-20.80Q240.77-10.56 235.26-4.61L235.26-4.61L235.26-4.61Q229.89 1.28 220.67 1.28ZM222.34-26.56L222.34-26.56L222.34-26.56Q221.57-24.83 220.96-22.24L220.96-22.24L220.96-22.24Q220.35-19.65 219.58-15.55L219.58-15.55L219.58-15.55Q218.82-11.46 218.82-6.40L218.82-6.40L218.82-6.40Q218.82-4.74 219.36-3.65L219.36-3.65L219.36-3.65Q219.90-2.56 221.38-2.56L221.38-2.56L221.38-2.56Q222.85-2.56 223.78-3.26L223.78-3.26L223.78-3.26Q224.70-3.97 225.41-5.63L225.41-5.63L225.41-5.63Q226.69-8.58 227.71-14.05L227.71-14.05L227.71-14.05Q228.74-19.52 228.83-21.89L228.83-21.89L228.83-21.89Q228.93-24.26 228.93-26.02L228.93-26.02L228.93-26.02Q228.93-27.78 228.42-28.93L228.42-28.93L228.42-28.93Q227.90-30.08 226.46-30.08L226.46-30.08L226.46-30.08Q225.02-30.08 224.06-29.18L224.06-29.18L224.06-29.18Q223.10-28.29 222.34-26.56ZM269.50-37.12L269.50-37.12L269.50-37.12Q270.40-38.66 270.40-40.32L270.40-40.32L270.40-40.32Q270.40-43.26 268.61-43.26L268.61-43.26L268.61-43.26Q265.86-43.26 264.70-37.63L264.70-37.63L263.74-32.64L269.57-32.64L269.18-29.76L263.17-29.76L257.41 0L244.48 1.28L250.62-29.76L246.08-29.76L246.66-32.64L251.14-32.64L252.48-37.70L252.48-37.70Q253.63-42.37 258.56-44.54L258.56-44.54L258.56-44.54Q262.14-46.08 268.16-46.08L268.16-46.08L268.16-46.08Q274.18-46.08 276.86-44.54L276.86-44.54L276.86-44.54Q279.55-43.01 279.55-40.96L279.55-40.96L279.55-40.96Q279.55-38.91 277.95-37.63L277.95-37.63L277.95-37.63Q276.35-36.35 274.56-36.35L274.56-36.35L274.56-36.35Q271.04-36.35 269.50-37.12ZM307.20-42.69L307.20-42.69L307.20-42.69Q322.88-42.69 322.88-31.62L322.88-31.62L322.88-31.62Q322.88-25.54 318.98-21.89L318.98-21.89L318.98-21.89Q315.14-18.24 308.42-18.24L308.42-18.24L308.42-18.24Q305.28-18.24 302.85-20.03L302.85-20.03L302.85-20.03Q301.70-20.80 300.93-21.82L300.93-21.82L300.93-21.82Q305.60-21.82 308.06-24.67L308.06-24.67L308.06-24.67Q310.53-27.52 310.53-33.09L310.53-33.09L310.53-33.09Q310.53-38.66 305.02-38.66L305.02-38.66L303.49-38.66L303.49-38.66Q303.10-38.66 302.78-38.59L302.78-38.59L295.42 0L281.54 0L289.41-41.92L289.41-41.92Q296.26-42.56 300.22-42.62L300.22-42.62L300.22-42.62Q304.19-42.69 307.20-42.69ZM325.98-1.92L325.98-1.92L325.98-1.92Q324.48-3.58 323.81-6.21L323.81-6.21L323.81-6.21Q323.14-8.83 323.14-13.12L323.14-13.12L323.14-13.12Q323.14-17.41 324.61-21.31L324.61-21.31L324.61-21.31Q326.08-25.22 328.77-28.03L328.77-28.03L328.77-28.03Q334.27-33.92 343.36-33.92L343.36-33.92L343.36-33.92Q346.62-33.92 348.99-32.83L348.99-32.83L359.94-33.92L355.20-8.96L355.20-8.96Q355.01-8.19 355.01-6.78L355.01-6.78L355.01-6.78Q355.01-5.38 355.87-4.48L355.87-4.48L355.87-4.48Q356.74-3.58 358.02-3.46L358.02-3.46L358.02-3.46Q357.38-1.28 355.04 0L355.04 0L355.04 0Q352.70 1.28 350.08 1.28L350.08 1.28L350.08 1.28Q347.46 1.28 345.70 0.29L345.70 0.29L345.70 0.29Q343.94-0.70 343.42-2.37L343.42-2.37L343.42-2.37Q342.40-0.77 340.22 0.26L340.22 0.26L340.22 0.26Q338.05 1.28 335.14 1.28L335.14 1.28L335.14 1.28Q332.22 1.28 329.86 0.51L329.86 0.51L329.86 0.51Q327.49-0.26 325.98-1.92ZM339.49-27.90L339.49-27.90L339.49-27.90Q338.75-26.75 338.11-24.80L338.11-24.80L338.11-24.80Q337.47-22.85 336.42-17.63L336.42-17.63L336.42-17.63Q335.36-12.42 335.36-8.70L335.36-8.70L335.36-8.70Q335.36-4.99 335.94-3.90L335.94-3.90L335.94-3.90Q336.51-2.82 337.54-2.82L337.54-2.82L337.54-2.82Q339.58-2.82 341.09-4.77L341.09-4.77L341.09-4.77Q342.59-6.72 343.17-10.18L343.17-10.18L346.56-28.93L346.56-28.93Q345.22-30.08 343.65-30.08L343.65-30.08L343.65-30.08Q342.08-30.08 341.15-29.57L341.15-29.57L341.15-29.57Q340.22-29.06 339.49-27.90ZM383.42-17.98L383.42-17.98L383.42-17.98Q385.73-22.08 385.73-26.24L385.73-26.24L385.73-26.24Q385.73-28.99 383.74-28.99L383.74-28.99L383.74-28.99Q382.21-28.99 380.61-26.37L380.61-26.37L380.61-26.37Q378.94-23.74 378.43-20.35L378.43-20.35L375.10 0L361.86 1.28L368.38-32.64L378.94-33.92L377.79-27.46L377.79-27.46Q380.93-33.92 387.97-33.92L387.97-33.92L387.97-33.92Q391.68-33.92 393.70-32L393.70-32L393.70-32Q395.71-30.08 395.71-26.14L395.71-26.14L395.71-26.14Q395.71-22.21 393.12-19.71L393.12-19.71L393.12-19.71Q390.53-17.22 386.11-17.22L386.11-17.22L386.11-17.22Q384.19-17.22 383.42-17.98ZM397.76-6.40L397.76-6.40L397.76-6.40Q397.76-8.13 398.66-12.48L398.66-12.48L402.05-29.76L398.27-29.76L398.53-31.68L398.53-31.68Q406.21-33.98 413.63-39.62L413.63-39.62L416.70-39.62L415.17-32.64L420.16-32.64L419.58-29.76L414.66-29.76L411.39-12.48L411.39-12.48Q410.56-8.51 410.56-7.17L410.56-7.17L410.56-7.17Q410.56-4.10 413.25-3.46L413.25-3.46L413.25-3.46Q412.61-1.28 410.30 0L410.30 0L410.30 0Q408.00 1.28 404.74 1.28L404.74 1.28L404.74 1.28Q401.47 1.28 399.62-0.77L399.62-0.77L399.62-0.77Q397.76-2.82 397.76-6.40ZM435.20-3.52L435.20-3.52L435.20-3.52Q433.22 1.28 426.88 1.28L426.88 1.28L426.88 1.28Q423.62 1.28 421.57-0.96L421.57-0.96L421.57-0.96Q419.84-2.94 419.84-4.93L419.84-4.93L419.84-4.93Q419.84-10.11 422.21-20.22L422.21-20.22L424.58-32.64L437.57-33.92L433.66-13.70L433.66-13.70Q432.58-8.96 432.58-7.30L432.58-7.30L432.58-7.30Q432.58-3.65 435.20-3.52ZM425.73-41.54L425.73-41.54L425.73-41.54Q425.73-44.03 427.81-45.38L427.81-45.38L427.81-45.38Q429.89-46.72 432.90-46.72L432.90-46.72L432.90-46.72Q435.90-46.72 437.73-45.38L437.73-45.38L437.73-45.38Q439.55-44.03 439.55-41.54L439.55-41.54L439.55-41.54Q439.55-39.04 437.54-37.76L437.54-37.76L437.54-37.76Q435.52-36.48 432.51-36.48L432.51-36.48L432.51-36.48Q429.50-36.48 427.62-37.76L427.62-37.76L427.62-37.76Q425.73-39.04 425.73-41.54ZM472.06-26.62L472.06-26.62L472.06-26.62Q472.06-23.94 469.82-22.27L469.82-22.27L469.82-22.27Q467.58-20.61 463.94-20.61L463.94-20.61L463.94-20.61Q462.40-20.61 461.50-21.06L461.50-21.06L461.50-21.06Q462.21-22.72 462.43-24.80L462.43-24.80L462.43-24.80Q462.66-26.88 462.66-27.46L462.66-27.46L462.66-27.46Q462.66-30.14 460.80-30.14L460.80-30.14L460.80-30.14Q459.52-30.14 458.08-28.54L458.08-28.54L458.08-28.54Q456.64-26.94 455.42-24.45L455.42-24.45L455.42-24.45Q452.74-18.69 452.74-12.86L452.74-12.86L452.74-12.86Q452.74-9.66 453.95-8.22L453.95-8.22L453.95-8.22Q455.17-6.78 457.86-6.78L457.86-6.78L457.86-6.78Q461.57-6.78 464.51-9.86L464.51-9.86L464.51-9.86Q465.34-10.82 465.79-11.90L465.79-11.90L465.79-11.90Q468.22-10.62 468.22-7.10L468.22-7.10L468.22-7.10Q468.22-3.52 464.26-1.15L464.26-1.15L464.26-1.15Q460.16 1.28 453.63 1.28L453.63 1.28L453.63 1.28Q440.64 1.28 440.64-12.48L440.64-12.48L440.64-12.48Q440.64-22.53 446.34-28.29L446.34-28.29L446.34-28.29Q451.84-33.92 461.95-33.92L461.95-33.92L461.95-33.92Q472.06-33.92 472.06-26.62ZM489.15-3.52L489.15-3.52L489.15-3.52Q487.17 1.28 480.83 1.28L480.83 1.28L480.83 1.28Q477.57 1.28 475.52-0.96L475.52-0.96L475.52-0.96Q473.79-2.94 473.79-4.93L473.79-4.93L473.79-4.93Q473.79-10.11 476.16-20.22L476.16-20.22L478.53-32.64L491.52-33.92L487.62-13.70L487.62-13.70Q486.53-8.96 486.53-7.30L486.53-7.30L486.53-7.30Q486.53-3.65 489.15-3.52ZM479.68-41.54L479.68-41.54L479.68-41.54Q479.68-44.03 481.76-45.38L481.76-45.38L481.76-45.38Q483.84-46.72 486.85-46.72L486.85-46.72L486.85-46.72Q489.86-46.72 491.68-45.38L491.68-45.38L491.68-45.38Q493.50-44.03 493.50-41.54L493.50-41.54L493.50-41.54Q493.50-39.04 491.49-37.76L491.49-37.76L491.49-37.76Q489.47-36.48 486.46-36.48L486.46-36.48L486.46-36.48Q483.46-36.48 481.57-37.76L481.57-37.76L481.57-37.76Q479.68-39.04 479.68-41.54ZM524.42-4.38L524.42-4.38L524.42-4.38Q521.73-1.66 518.05-0.19L518.05-0.19L518.05-0.19Q514.37 1.28 510.72 1.28L510.72 1.28L510.72 1.28Q507.07 1.28 505.79 0.64L505.79 0.64L503.81 11.52L490.82 12.80L499.65-32.64L510.08-33.73L509.25-29.31L509.25-29.31Q511.94-33.86 517.50-33.86L517.50-33.86L517.50-33.86Q523.78-33.86 527.10-29.82L527.10-29.82L527.10-29.82Q530.05-26.18 530.05-20.61L530.05-20.61L530.05-20.61Q530.05-15.04 528.58-11.07L528.58-11.07L528.58-11.07Q527.10-7.10 524.42-4.38ZM509.95-22.34L506.56-3.58L506.56-3.58Q507.90-2.43 509.57-2.43L509.57-2.43L509.57-2.43Q511.23-2.43 512.19-3.07L512.19-3.07L512.19-3.07Q513.15-3.71 513.86-4.99L513.86-4.99L513.86-4.99Q515.78-8.45 517.31-18.94L517.31-18.94L517.31-18.94Q517.76-22.02 517.76-25.02L517.76-25.02L517.76-25.02Q517.76-28.03 517.09-28.99L517.09-28.99L517.09-28.99Q516.42-29.95 515.14-29.95L515.14-29.95L515.14-29.95Q511.23-29.95 509.95-22.34L509.95-22.34ZM536.67-1.92L536.67-1.92L536.67-1.92Q535.17-3.58 534.50-6.21L534.50-6.21L534.50-6.21Q533.82-8.83 533.82-13.12L533.82-13.12L533.82-13.12Q533.82-17.41 535.30-21.31L535.30-21.31L535.30-21.31Q536.77-25.22 539.46-28.03L539.46-28.03L539.46-28.03Q544.96-33.92 554.05-33.92L554.05-33.92L554.05-33.92Q557.31-33.92 559.68-32.83L559.68-32.83L570.62-33.92L565.89-8.96L565.89-8.96Q565.70-8.19 565.70-6.78L565.70-6.78L565.70-6.78Q565.70-5.38 566.56-4.48L566.56-4.48L566.56-4.48Q567.42-3.58 568.70-3.46L568.70-3.46L568.70-3.46Q568.06-1.28 565.73 0L565.73 0L565.73 0Q563.39 1.28 560.77 1.28L560.77 1.28L560.77 1.28Q558.14 1.28 556.38 0.29L556.38 0.29L556.38 0.29Q554.62-0.70 554.11-2.37L554.11-2.37L554.11-2.37Q553.09-0.77 550.91 0.26L550.91 0.26L550.91 0.26Q548.74 1.28 545.82 1.28L545.82 1.28L545.82 1.28Q542.91 1.28 540.54 0.51L540.54 0.51L540.54 0.51Q538.18-0.26 536.67-1.92ZM550.18-27.90L550.18-27.90L550.18-27.90Q549.44-26.75 548.80-24.80L548.80-24.80L548.80-24.80Q548.16-22.85 547.10-17.63L547.10-17.63L547.10-17.63Q546.05-12.42 546.05-8.70L546.05-8.70L546.05-8.70Q546.05-4.99 546.62-3.90L546.62-3.90L546.62-3.90Q547.20-2.82 548.22-2.82L548.22-2.82L548.22-2.82Q550.27-2.82 551.78-4.77L551.78-4.77L551.78-4.77Q553.28-6.72 553.86-10.18L553.86-10.18L557.25-28.93L557.25-28.93Q555.90-30.08 554.34-30.08L554.34-30.08L554.34-30.08Q552.77-30.08 551.84-29.57L551.84-29.57L551.84-29.57Q550.91-29.06 550.18-27.90ZM575.10-6.40L575.10-6.40L575.10-6.40Q575.10-8.13 576-12.48L576-12.48L579.39-29.76L575.62-29.76L575.87-31.68L575.87-31.68Q583.55-33.98 590.98-39.62L590.98-39.62L594.05-39.62L592.51-32.64L597.50-32.64L596.93-29.76L592-29.76L588.74-12.48L588.74-12.48Q587.90-8.51 587.90-7.17L587.90-7.17L587.90-7.17Q587.90-4.10 590.59-3.46L590.59-3.46L590.59-3.46Q589.95-1.28 587.65 0L587.65 0L587.65 0Q585.34 1.28 582.08 1.28L582.08 1.28L582.08 1.28Q578.82 1.28 576.96-0.77L576.96-0.77L576.96-0.77Q575.10-2.82 575.10-6.40ZM612.54-3.52L612.54-3.52L612.54-3.52Q610.56 1.28 604.22 1.28L604.22 1.28L604.22 1.28Q600.96 1.28 598.91-0.96L598.91-0.96L598.91-0.96Q597.18-2.94 597.18-4.93L597.18-4.93L597.18-4.93Q597.18-10.11 599.55-20.22L599.55-20.22L601.92-32.64L614.91-33.92L611.01-13.70L611.01-13.70Q609.92-8.96 609.92-7.30L609.92-7.30L609.92-7.30Q609.92-3.65 612.54-3.52ZM603.07-41.54L603.07-41.54L603.07-41.54Q603.07-44.03 605.15-45.38L605.15-45.38L605.15-45.38Q607.23-46.72 610.24-46.72L610.24-46.72L610.24-46.72Q613.25-46.72 615.07-45.38L615.07-45.38L615.07-45.38Q616.90-44.03 616.90-41.54L616.90-41.54L616.90-41.54Q616.90-39.04 614.88-37.76L614.88-37.76L614.88-37.76Q612.86-36.48 609.86-36.48L609.86-36.48L609.86-36.48Q606.85-36.48 604.96-37.76L604.96-37.76L604.96-37.76Q603.07-39.04 603.07-41.54ZM631.94 1.28L631.94 1.28L631.94 1.28Q617.86 1.28 617.86-11.97L617.86-11.97L617.86-11.97Q617.86-21.38 623.04-27.46L623.04-27.46L623.04-27.46Q628.54-33.92 638.08-33.92L638.08-33.92L638.08-33.92Q644.99-33.92 648.51-30.72L648.51-30.72L648.51-30.72Q652.03-27.52 652.03-20.80L652.03-20.80L652.03-20.80Q652.03-10.56 646.53-4.61L646.53-4.61L646.53-4.61Q641.15 1.28 631.94 1.28ZM633.60-26.56L633.60-26.56L633.60-26.56Q632.83-24.83 632.22-22.24L632.22-22.24L632.22-22.24Q631.62-19.65 630.85-15.55L630.85-15.55L630.85-15.55Q630.08-11.46 630.08-6.40L630.08-6.40L630.08-6.40Q630.08-4.74 630.62-3.65L630.62-3.65L630.62-3.65Q631.17-2.56 632.64-2.56L632.64-2.56L632.64-2.56Q634.11-2.56 635.04-3.26L635.04-3.26L635.04-3.26Q635.97-3.97 636.67-5.63L636.67-5.63L636.67-5.63Q637.95-8.58 638.98-14.05L638.98-14.05L638.98-14.05Q640-19.52 640.10-21.89L640.10-21.89L640.10-21.89Q640.19-24.26 640.19-26.02L640.19-26.02L640.19-26.02Q640.19-27.78 639.68-28.93L639.68-28.93L639.68-28.93Q639.17-30.08 637.73-30.08L637.73-30.08L637.73-30.08Q636.29-30.08 635.33-29.18L635.33-29.18L635.33-29.18Q634.37-28.29 633.60-26.56ZM682.88 1.28L682.88 1.28L682.88 1.28Q675.14 1.28 675.14-4.74L675.14-4.74L675.14-4.74Q675.20-6.40 675.71-9.22L675.71-9.22L676.86-15.10L676.86-15.10Q678.59-23.42 678.59-25.28L678.59-25.28L678.59-25.28Q678.59-28.99 676.42-28.99L676.42-28.99L676.42-28.99Q672.77-28.99 670.85-19.46L670.85-19.46L667.07 0L654.21 1.28L660.86-32.70L671.36-33.92L670.34-27.65L670.34-27.65Q673.34-33.92 682.56-33.92L682.56-33.92L682.56-33.92Q687.04-33.92 688.93-32.03L688.93-32.03L688.93-32.03Q690.82-30.14 690.82-25.92L690.82-25.92L690.82-25.92Q690.82-21.95 688.77-12.67L688.77-12.67L688.77-12.67Q687.81-8.51 687.81-6.94L687.81-6.94L687.81-6.94Q687.81-5.38 688.67-4.48L688.67-4.48L688.67-4.48Q689.54-3.58 690.82-3.46L690.82-3.46L690.82-3.46Q690.18-1.28 687.97 0L687.97 0L687.97 0Q685.76 1.28 682.88 1.28Z" fill="#f00" stroke="#0f0" stroke-width="1.8"></path></g></g><g><g transform="translate(-96.75500249862671, 104.76000022888184)"><path d="M2.69-39.68L2.69-39.68L2.69-39.68Q3.58-41.47 5.54-42.46L5.54-42.46L5.54-42.46Q7.49-43.46 10.18-43.46L10.18-43.46L10.18-43.46Q14.40-43.46 16.93-40.42L16.93-40.42L16.93-40.42Q19.46-37.38 19.46-30.72L19.46-30.72L19.46-7.87L34.11-42.18L41.66-42.18L43.39-9.79L43.20-7.94L58.43-42.18L67.20-42.18L46.72 0L33.09 0L31.81-19.46L23.36 0L7.94 0L6.02-30.72L6.02-30.72Q5.82-34.18 4.90-36.45L4.90-36.45L4.90-36.45Q3.97-38.72 2.69-39.68ZM96.64-7.10L96.64-7.10L96.64-7.10Q96.64-4.29 99.52-3.46L99.52-3.46L99.52-3.46Q98.82-1.09 96.06 0.19L96.06 0.19L96.06 0.19Q93.76 1.28 91.23 1.28L91.23 1.28L91.23 1.28Q88.70 1.28 87.39 0.61L87.39 0.61L87.39 0.61Q86.08-0.06 85.38-1.15L85.38-1.15L85.38-1.15Q84.22-2.82 84.22-5.95L84.22-5.95L84.22-5.95Q84.22-7.81 85.25-12.93L85.25-12.93L86.14-17.79L86.14-17.79Q87.23-23.36 87.23-25.41L87.23-25.41L87.23-25.41Q87.23-28.99 85.25-28.99L85.25-28.99L85.25-28.99Q82.75-28.99 81.15-25.34L81.15-25.34L81.15-25.34Q80.51-23.94 80.06-21.82L80.06-21.82L75.71 0L62.85 1.28L71.87-44.80L84.74-46.08L84.22-43.52L84.22-43.52Q82.43-33.66 80.90-30.34L80.90-30.34L80.90-30.34Q84.48-33.92 91.07-33.92L91.07-33.92L91.07-33.92Q98.05-33.92 99.33-29.31L99.33-29.31L99.33-29.31Q99.78-27.84 99.78-26.56L99.78-26.56L99.78-26.56Q99.78-25.28 99.68-24.29L99.68-24.29L99.68-24.29Q99.58-23.30 99.26-21.50L99.26-21.50L98.43-16.90L96.96-9.66L96.96-9.66Q96.64-8.19 96.64-7.10ZM130.62-10.82L130.62-10.82L130.62-10.82Q132.22-9.73 132.22-7.33L132.22-7.33L132.22-7.33Q132.22-4.93 131.01-3.39L131.01-3.39L131.01-3.39Q129.79-1.86 127.81-0.83L127.81-0.83L127.81-0.83Q123.71 1.28 119.30 1.28L119.30 1.28L119.30 1.28Q114.88 1.28 112.29 0.32L112.29 0.32L112.29 0.32Q109.70-0.64 107.97-2.43L107.97-2.43L107.97-2.43Q104.58-5.82 104.58-12.03L104.58-12.03L104.58-12.03Q104.58-21.70 109.82-27.58L109.82-27.58L109.82-27.58Q115.46-33.92 125.25-33.92L125.25-33.92L125.25-33.92Q131.33-33.92 134.34-31.36L134.34-31.36L134.34-31.36Q136.58-29.44 136.58-26.30L136.58-26.30L136.58-26.30Q136.58-15.04 117.12-15.04L117.12-15.04L117.12-15.04Q116.86-13.38 116.86-11.97L116.86-11.97L116.86-11.97Q116.86-9.02 118.18-7.90L118.18-7.90L118.18-7.90Q119.49-6.78 121.92-6.78L121.92-6.78L121.92-6.78Q124.35-6.78 126.94-7.90L126.94-7.90L126.94-7.90Q129.54-9.02 130.62-10.82ZM117.57-17.79L117.57-17.79L117.57-17.79Q122.11-17.79 124.74-20.61L124.74-20.61L124.74-20.61Q127.36-23.30 127.36-27.58L127.36-27.58L127.36-27.58Q127.36-29.06 126.82-29.86L126.82-29.86L126.82-29.86Q126.27-30.66 125.18-30.66L125.18-30.66L125.18-30.66Q124.10-30.66 123.17-30.24L123.17-30.24L123.17-30.24Q122.24-29.82 121.28-28.42L121.28-28.42L121.28-28.42Q118.91-25.22 117.57-17.79ZM164.67-10.82L164.67-10.82L164.67-10.82Q166.27-9.73 166.27-7.33L166.27-7.33L166.27-7.33Q166.27-4.93 165.06-3.39L165.06-3.39L165.06-3.39Q163.84-1.86 161.86-0.83L161.86-0.83L161.86-0.83Q157.76 1.28 153.34 1.28L153.34 1.28L153.34 1.28Q148.93 1.28 146.34 0.32L146.34 0.32L146.34 0.32Q143.74-0.64 142.02-2.43L142.02-2.43L142.02-2.43Q138.62-5.82 138.62-12.03L138.62-12.03L138.62-12.03Q138.62-21.70 143.87-27.58L143.87-27.58L143.87-27.58Q149.50-33.92 159.30-33.92L159.30-33.92L159.30-33.92Q165.38-33.92 168.38-31.36L168.38-31.36L168.38-31.36Q170.62-29.44 170.62-26.30L170.62-26.30L170.62-26.30Q170.62-15.04 151.17-15.04L151.17-15.04L151.17-15.04Q150.91-13.38 150.91-11.97L150.91-11.97L150.91-11.97Q150.91-9.02 152.22-7.90L152.22-7.90L152.22-7.90Q153.54-6.78 155.97-6.78L155.97-6.78L155.97-6.78Q158.40-6.78 160.99-7.90L160.99-7.90L160.99-7.90Q163.58-9.02 164.67-10.82ZM151.62-17.79L151.62-17.79L151.62-17.79Q156.16-17.79 158.78-20.61L158.78-20.61L158.78-20.61Q161.41-23.30 161.41-27.58L161.41-27.58L161.41-27.58Q161.41-29.06 160.86-29.86L160.86-29.86L160.86-29.86Q160.32-30.66 159.23-30.66L159.23-30.66L159.23-30.66Q158.14-30.66 157.22-30.24L157.22-30.24L157.22-30.24Q156.29-29.82 155.33-28.42L155.33-28.42L155.33-28.42Q152.96-25.22 151.62-17.79ZM188.10-3.52L188.10-3.52L188.10-3.52Q186.11 1.28 179.78 1.28L179.78 1.28L179.78 1.28Q176.58 1.28 174.53-0.96L174.53-0.96L174.53-0.96Q172.86-2.82 172.86-4.93L172.86-4.93L172.86-4.93Q172.86-9.73 175.10-20.22L175.10-20.22L179.78-44.80L192.77-46.08L186.56-13.70L186.56-13.70Q185.47-8.96 185.47-7.30L185.47-7.30L185.47-7.30Q185.47-3.65 188.10-3.52ZM220.67 1.28L220.67 1.28L220.67 1.28Q206.59 1.28 206.59-11.97L206.59-11.97L206.59-11.97Q206.59-21.38 211.78-27.46L211.78-27.46L211.78-27.46Q217.28-33.92 226.82-33.92L226.82-33.92L226.82-33.92Q233.73-33.92 237.25-30.72L237.25-30.72L237.25-30.72Q240.77-27.52 240.77-20.80L240.77-20.80L240.77-20.80Q240.77-10.56 235.26-4.61L235.26-4.61L235.26-4.61Q229.89 1.28 220.67 1.28ZM222.34-26.56L222.34-26.56L222.34-26.56Q221.57-24.83 220.96-22.24L220.96-22.24L220.96-22.24Q220.35-19.65 219.58-15.55L219.58-15.55L219.58-15.55Q218.82-11.46 218.82-6.40L218.82-6.40L218.82-6.40Q218.82-4.74 219.36-3.65L219.36-3.65L219.36-3.65Q219.90-2.56 221.38-2.56L221.38-2.56L221.38-2.56Q222.85-2.56 223.78-3.26L223.78-3.26L223.78-3.26Q224.70-3.97 225.41-5.63L225.41-5.63L225.41-5.63Q226.69-8.58 227.71-14.05L227.71-14.05L227.71-14.05Q228.74-19.52 228.83-21.89L228.83-21.89L228.83-21.89Q228.93-24.26 228.93-26.02L228.93-26.02L228.93-26.02Q228.93-27.78 228.42-28.93L228.42-28.93L228.42-28.93Q227.90-30.08 226.46-30.08L226.46-30.08L226.46-30.08Q225.02-30.08 224.06-29.18L224.06-29.18L224.06-29.18Q223.10-28.29 222.34-26.56ZM269.50-37.12L269.50-37.12L269.50-37.12Q270.40-38.66 270.40-40.32L270.40-40.32L270.40-40.32Q270.40-43.26 268.61-43.26L268.61-43.26L268.61-43.26Q265.86-43.26 264.70-37.63L264.70-37.63L263.74-32.64L269.57-32.64L269.18-29.76L263.17-29.76L257.41 0L244.48 1.28L250.62-29.76L246.08-29.76L246.66-32.64L251.14-32.64L252.48-37.70L252.48-37.70Q253.63-42.37 258.56-44.54L258.56-44.54L258.56-44.54Q262.14-46.08 268.16-46.08L268.16-46.08L268.16-46.08Q274.18-46.08 276.86-44.54L276.86-44.54L276.86-44.54Q279.55-43.01 279.55-40.96L279.55-40.96L279.55-40.96Q279.55-38.91 277.95-37.63L277.95-37.63L277.95-37.63Q276.35-36.35 274.56-36.35L274.56-36.35L274.56-36.35Q271.04-36.35 269.50-37.12ZM307.20-42.69L307.20-42.69L307.20-42.69Q322.88-42.69 322.88-31.62L322.88-31.62L322.88-31.62Q322.88-25.54 318.98-21.89L318.98-21.89L318.98-21.89Q315.14-18.24 308.42-18.24L308.42-18.24L308.42-18.24Q305.28-18.24 302.85-20.03L302.85-20.03L302.85-20.03Q301.70-20.80 300.93-21.82L300.93-21.82L300.93-21.82Q305.60-21.82 308.06-24.67L308.06-24.67L308.06-24.67Q310.53-27.52 310.53-33.09L310.53-33.09L310.53-33.09Q310.53-38.66 305.02-38.66L305.02-38.66L303.49-38.66L303.49-38.66Q303.10-38.66 302.78-38.59L302.78-38.59L295.42 0L281.54 0L289.41-41.92L289.41-41.92Q296.26-42.56 300.22-42.62L300.22-42.62L300.22-42.62Q304.19-42.69 307.20-42.69ZM325.98-1.92L325.98-1.92L325.98-1.92Q324.48-3.58 323.81-6.21L323.81-6.21L323.81-6.21Q323.14-8.83 323.14-13.12L323.14-13.12L323.14-13.12Q323.14-17.41 324.61-21.31L324.61-21.31L324.61-21.31Q326.08-25.22 328.77-28.03L328.77-28.03L328.77-28.03Q334.27-33.92 343.36-33.92L343.36-33.92L343.36-33.92Q346.62-33.92 348.99-32.83L348.99-32.83L359.94-33.92L355.20-8.96L355.20-8.96Q355.01-8.19 355.01-6.78L355.01-6.78L355.01-6.78Q355.01-5.38 355.87-4.48L355.87-4.48L355.87-4.48Q356.74-3.58 358.02-3.46L358.02-3.46L358.02-3.46Q357.38-1.28 355.04 0L355.04 0L355.04 0Q352.70 1.28 350.08 1.28L350.08 1.28L350.08 1.28Q347.46 1.28 345.70 0.29L345.70 0.29L345.70 0.29Q343.94-0.70 343.42-2.37L343.42-2.37L343.42-2.37Q342.40-0.77 340.22 0.26L340.22 0.26L340.22 0.26Q338.05 1.28 335.14 1.28L335.14 1.28L335.14 1.28Q332.22 1.28 329.86 0.51L329.86 0.51L329.86 0.51Q327.49-0.26 325.98-1.92ZM339.49-27.90L339.49-27.90L339.49-27.90Q338.75-26.75 338.11-24.80L338.11-24.80L338.11-24.80Q337.47-22.85 336.42-17.63L336.42-17.63L336.42-17.63Q335.36-12.42 335.36-8.70L335.36-8.70L335.36-8.70Q335.36-4.99 335.94-3.90L335.94-3.90L335.94-3.90Q336.51-2.82 337.54-2.82L337.54-2.82L337.54-2.82Q339.58-2.82 341.09-4.77L341.09-4.77L341.09-4.77Q342.59-6.72 343.17-10.18L343.17-10.18L346.56-28.93L346.56-28.93Q345.22-30.08 343.65-30.08L343.65-30.08L343.65-30.08Q342.08-30.08 341.15-29.57L341.15-29.57L341.15-29.57Q340.22-29.06 339.49-27.90ZM383.42-17.98L383.42-17.98L383.42-17.98Q385.73-22.08 385.73-26.24L385.73-26.24L385.73-26.24Q385.73-28.99 383.74-28.99L383.74-28.99L383.74-28.99Q382.21-28.99 380.61-26.37L380.61-26.37L380.61-26.37Q378.94-23.74 378.43-20.35L378.43-20.35L375.10 0L361.86 1.28L368.38-32.64L378.94-33.92L377.79-27.46L377.79-27.46Q380.93-33.92 387.97-33.92L387.97-33.92L387.97-33.92Q391.68-33.92 393.70-32L393.70-32L393.70-32Q395.71-30.08 395.71-26.14L395.71-26.14L395.71-26.14Q395.71-22.21 393.12-19.71L393.12-19.71L393.12-19.71Q390.53-17.22 386.11-17.22L386.11-17.22L386.11-17.22Q384.19-17.22 383.42-17.98ZM397.76-6.40L397.76-6.40L397.76-6.40Q397.76-8.13 398.66-12.48L398.66-12.48L402.05-29.76L398.27-29.76L398.53-31.68L398.53-31.68Q406.21-33.98 413.63-39.62L413.63-39.62L416.70-39.62L415.17-32.64L420.16-32.64L419.58-29.76L414.66-29.76L411.39-12.48L411.39-12.48Q410.56-8.51 410.56-7.17L410.56-7.17L410.56-7.17Q410.56-4.10 413.25-3.46L413.25-3.46L413.25-3.46Q412.61-1.28 410.30 0L410.30 0L410.30 0Q408.00 1.28 404.74 1.28L404.74 1.28L404.74 1.28Q401.47 1.28 399.62-0.77L399.62-0.77L399.62-0.77Q397.76-2.82 397.76-6.40ZM435.20-3.52L435.20-3.52L435.20-3.52Q433.22 1.28 426.88 1.28L426.88 1.28L426.88 1.28Q423.62 1.28 421.57-0.96L421.57-0.96L421.57-0.96Q419.84-2.94 419.84-4.93L419.84-4.93L419.84-4.93Q419.84-10.11 422.21-20.22L422.21-20.22L424.58-32.64L437.57-33.92L433.66-13.70L433.66-13.70Q432.58-8.96 432.58-7.30L432.58-7.30L432.58-7.30Q432.58-3.65 435.20-3.52ZM425.73-41.54L425.73-41.54L425.73-41.54Q425.73-44.03 427.81-45.38L427.81-45.38L427.81-45.38Q429.89-46.72 432.90-46.72L432.90-46.72L432.90-46.72Q435.90-46.72 437.73-45.38L437.73-45.38L437.73-45.38Q439.55-44.03 439.55-41.54L439.55-41.54L439.55-41.54Q439.55-39.04 437.54-37.76L437.54-37.76L437.54-37.76Q435.52-36.48 432.51-36.48L432.51-36.48L432.51-36.48Q429.50-36.48 427.62-37.76L427.62-37.76L427.62-37.76Q425.73-39.04 425.73-41.54ZM472.06-26.62L472.06-26.62L472.06-26.62Q472.06-23.94 469.82-22.27L469.82-22.27L469.82-22.27Q467.58-20.61 463.94-20.61L463.94-20.61L463.94-20.61Q462.40-20.61 461.50-21.06L461.50-21.06L461.50-21.06Q462.21-22.72 462.43-24.80L462.43-24.80L462.43-24.80Q462.66-26.88 462.66-27.46L462.66-27.46L462.66-27.46Q462.66-30.14 460.80-30.14L460.80-30.14L460.80-30.14Q459.52-30.14 458.08-28.54L458.08-28.54L458.08-28.54Q456.64-26.94 455.42-24.45L455.42-24.45L455.42-24.45Q452.74-18.69 452.74-12.86L452.74-12.86L452.74-12.86Q452.74-9.66 453.95-8.22L453.95-8.22L453.95-8.22Q455.17-6.78 457.86-6.78L457.86-6.78L457.86-6.78Q461.57-6.78 464.51-9.86L464.51-9.86L464.51-9.86Q465.34-10.82 465.79-11.90L465.79-11.90L465.79-11.90Q468.22-10.62 468.22-7.10L468.22-7.10L468.22-7.10Q468.22-3.52 464.26-1.15L464.26-1.15L464.26-1.15Q460.16 1.28 453.63 1.28L453.63 1.28L453.63 1.28Q440.64 1.28 440.64-12.48L440.64-12.48L440.64-12.48Q440.64-22.53 446.34-28.29L446.34-28.29L446.34-28.29Q451.84-33.92 461.95-33.92L461.95-33.92L461.95-33.92Q472.06-33.92 472.06-26.62ZM489.15-3.52L489.15-3.52L489.15-3.52Q487.17 1.28 480.83 1.28L480.83 1.28L480.83 1.28Q477.57 1.28 475.52-0.96L475.52-0.96L475.52-0.96Q473.79-2.94 473.79-4.93L473.79-4.93L473.79-4.93Q473.79-10.11 476.16-20.22L476.16-20.22L478.53-32.64L491.52-33.92L487.62-13.70L487.62-13.70Q486.53-8.96 486.53-7.30L486.53-7.30L486.53-7.30Q486.53-3.65 489.15-3.52ZM479.68-41.54L479.68-41.54L479.68-41.54Q479.68-44.03 481.76-45.38L481.76-45.38L481.76-45.38Q483.84-46.72 486.85-46.72L486.85-46.72L486.85-46.72Q489.86-46.72 491.68-45.38L491.68-45.38L491.68-45.38Q493.50-44.03 493.50-41.54L493.50-41.54L493.50-41.54Q493.50-39.04 491.49-37.76L491.49-37.76L491.49-37.76Q489.47-36.48 486.46-36.48L486.46-36.48L486.46-36.48Q483.46-36.48 481.57-37.76L481.57-37.76L481.57-37.76Q479.68-39.04 479.68-41.54ZM524.42-4.38L524.42-4.38L524.42-4.38Q521.73-1.66 518.05-0.19L518.05-0.19L518.05-0.19Q514.37 1.28 510.72 1.28L510.72 1.28L510.72 1.28Q507.07 1.28 505.79 0.64L505.79 0.64L503.81 11.52L490.82 12.80L499.65-32.64L510.08-33.73L509.25-29.31L509.25-29.31Q511.94-33.86 517.50-33.86L517.50-33.86L517.50-33.86Q523.78-33.86 527.10-29.82L527.10-29.82L527.10-29.82Q530.05-26.18 530.05-20.61L530.05-20.61L530.05-20.61Q530.05-15.04 528.58-11.07L528.58-11.07L528.58-11.07Q527.10-7.10 524.42-4.38ZM509.95-22.34L506.56-3.58L506.56-3.58Q507.90-2.43 509.57-2.43L509.57-2.43L509.57-2.43Q511.23-2.43 512.19-3.07L512.19-3.07L512.19-3.07Q513.15-3.71 513.86-4.99L513.86-4.99L513.86-4.99Q515.78-8.45 517.31-18.94L517.31-18.94L517.31-18.94Q517.76-22.02 517.76-25.02L517.76-25.02L517.76-25.02Q517.76-28.03 517.09-28.99L517.09-28.99L517.09-28.99Q516.42-29.95 515.14-29.95L515.14-29.95L515.14-29.95Q511.23-29.95 509.95-22.34L509.95-22.34ZM536.67-1.92L536.67-1.92L536.67-1.92Q535.17-3.58 534.50-6.21L534.50-6.21L534.50-6.21Q533.82-8.83 533.82-13.12L533.82-13.12L533.82-13.12Q533.82-17.41 535.30-21.31L535.30-21.31L535.30-21.31Q536.77-25.22 539.46-28.03L539.46-28.03L539.46-28.03Q544.96-33.92 554.05-33.92L554.05-33.92L554.05-33.92Q557.31-33.92 559.68-32.83L559.68-32.83L570.62-33.92L565.89-8.96L565.89-8.96Q565.70-8.19 565.70-6.78L565.70-6.78L565.70-6.78Q565.70-5.38 566.56-4.48L566.56-4.48L566.56-4.48Q567.42-3.58 568.70-3.46L568.70-3.46L568.70-3.46Q568.06-1.28 565.73 0L565.73 0L565.73 0Q563.39 1.28 560.77 1.28L560.77 1.28L560.77 1.28Q558.14 1.28 556.38 0.29L556.38 0.29L556.38 0.29Q554.62-0.70 554.11-2.37L554.11-2.37L554.11-2.37Q553.09-0.77 550.91 0.26L550.91 0.26L550.91 0.26Q548.74 1.28 545.82 1.28L545.82 1.28L545.82 1.28Q542.91 1.28 540.54 0.51L540.54 0.51L540.54 0.51Q538.18-0.26 536.67-1.92ZM550.18-27.90L550.18-27.90L550.18-27.90Q549.44-26.75 548.80-24.80L548.80-24.80L548.80-24.80Q548.16-22.85 547.10-17.63L547.10-17.63L547.10-17.63Q546.05-12.42 546.05-8.70L546.05-8.70L546.05-8.70Q546.05-4.99 546.62-3.90L546.62-3.90L546.62-3.90Q547.20-2.82 548.22-2.82L548.22-2.82L548.22-2.82Q550.27-2.82 551.78-4.77L551.78-4.77L551.78-4.77Q553.28-6.72 553.86-10.18L553.86-10.18L557.25-28.93L557.25-28.93Q555.90-30.08 554.34-30.08L554.34-30.08L554.34-30.08Q552.77-30.08 551.84-29.57L551.84-29.57L551.84-29.57Q550.91-29.06 550.18-27.90ZM575.10-6.40L575.10-6.40L575.10-6.40Q575.10-8.13 576-12.48L576-12.48L579.39-29.76L575.62-29.76L575.87-31.68L575.87-31.68Q583.55-33.98 590.98-39.62L590.98-39.62L594.05-39.62L592.51-32.64L597.50-32.64L596.93-29.76L592-29.76L588.74-12.48L588.74-12.48Q587.90-8.51 587.90-7.17L587.90-7.17L587.90-7.17Q587.90-4.10 590.59-3.46L590.59-3.46L590.59-3.46Q589.95-1.28 587.65 0L587.65 0L587.65 0Q585.34 1.28 582.08 1.28L582.08 1.28L582.08 1.28Q578.82 1.28 576.96-0.77L576.96-0.77L576.96-0.77Q575.10-2.82 575.10-6.40ZM612.54-3.52L612.54-3.52L612.54-3.52Q610.56 1.28 604.22 1.28L604.22 1.28L604.22 1.28Q600.96 1.28 598.91-0.96L598.91-0.96L598.91-0.96Q597.18-2.94 597.18-4.93L597.18-4.93L597.18-4.93Q597.18-10.11 599.55-20.22L599.55-20.22L601.92-32.64L614.91-33.92L611.01-13.70L611.01-13.70Q609.92-8.96 609.92-7.30L609.92-7.30L609.92-7.30Q609.92-3.65 612.54-3.52ZM603.07-41.54L603.07-41.54L603.07-41.54Q603.07-44.03 605.15-45.38L605.15-45.38L605.15-45.38Q607.23-46.72 610.24-46.72L610.24-46.72L610.24-46.72Q613.25-46.72 615.07-45.38L615.07-45.38L615.07-45.38Q616.90-44.03 616.90-41.54L616.90-41.54L616.90-41.54Q616.90-39.04 614.88-37.76L614.88-37.76L614.88-37.76Q612.86-36.48 609.86-36.48L609.86-36.48L609.86-36.48Q606.85-36.48 604.96-37.76L604.96-37.76L604.96-37.76Q603.07-39.04 603.07-41.54ZM631.94 1.28L631.94 1.28L631.94 1.28Q617.86 1.28 617.86-11.97L617.86-11.97L617.86-11.97Q617.86-21.38 623.04-27.46L623.04-27.46L623.04-27.46Q628.54-33.92 638.08-33.92L638.08-33.92L638.08-33.92Q644.99-33.92 648.51-30.72L648.51-30.72L648.51-30.72Q652.03-27.52 652.03-20.80L652.03-20.80L652.03-20.80Q652.03-10.56 646.53-4.61L646.53-4.61L646.53-4.61Q641.15 1.28 631.94 1.28ZM633.60-26.56L633.60-26.56L633.60-26.56Q632.83-24.83 632.22-22.24L632.22-22.24L632.22-22.24Q631.62-19.65 630.85-15.55L630.85-15.55L630.85-15.55Q630.08-11.46 630.08-6.40L630.08-6.40L630.08-6.40Q630.08-4.74 630.62-3.65L630.62-3.65L630.62-3.65Q631.17-2.56 632.64-2.56L632.64-2.56L632.64-2.56Q634.11-2.56 635.04-3.26L635.04-3.26L635.04-3.26Q635.97-3.97 636.67-5.63L636.67-5.63L636.67-5.63Q637.95-8.58 638.98-14.05L638.98-14.05L638.98-14.05Q640-19.52 640.10-21.89L640.10-21.89L640.10-21.89Q640.19-24.26 640.19-26.02L640.19-26.02L640.19-26.02Q640.19-27.78 639.68-28.93L639.68-28.93L639.68-28.93Q639.17-30.08 637.73-30.08L637.73-30.08L637.73-30.08Q636.29-30.08 635.33-29.18L635.33-29.18L635.33-29.18Q634.37-28.29 633.60-26.56ZM682.88 1.28L682.88 1.28L682.88 1.28Q675.14 1.28 675.14-4.74L675.14-4.74L675.14-4.74Q675.20-6.40 675.71-9.22L675.71-9.22L676.86-15.10L676.86-15.10Q678.59-23.42 678.59-25.28L678.59-25.28L678.59-25.28Q678.59-28.99 676.42-28.99L676.42-28.99L676.42-28.99Q672.77-28.99 670.85-19.46L670.85-19.46L667.07 0L654.21 1.28L660.86-32.70L671.36-33.92L670.34-27.65L670.34-27.65Q673.34-33.92 682.56-33.92L682.56-33.92L682.56-33.92Q687.04-33.92 688.93-32.03L688.93-32.03L688.93-32.03Q690.82-30.14 690.82-25.92L690.82-25.92L690.82-25.92Q690.82-21.95 688.77-12.67L688.77-12.67L688.77-12.67Q687.81-8.51 687.81-6.94L687.81-6.94L687.81-6.94Q687.81-5.38 688.67-4.48L688.67-4.48L688.67-4.48Q689.54-3.58 690.82-3.46L690.82-3.46L690.82-3.46Q690.18-1.28 687.97 0L687.97 0L687.97 0Q685.76 1.28 682.88 1.28Z" fill="none" stroke="#f7be33" stroke-width="2.1"></path></g></g></g><style>text {
  font-size: 64px;
  font-family: Arial Black;
  dominant-baseline: central;
  text-anchor: middle;
}</style></svg>